<!--
Created with Chapman Taylor Dynamo SVG exporter
byabear@chapmantaylor.com

Revit Source File:
C:\Users\acaaronk\Documents\Revit Local Files\A19-Walker_detached_akapphahn@hga.com.rvt

Date:
6/3/2020 3:36:00 PM
-->

<svg xmlns="http://www.w3.org/2000/svg" class="gen-by-CTA-dyn-Synoptic-for-PowerBI" viewBox=" 61.0 -147.0 327.0 146.0 " transform="scale( 0.95 )">

<style>
polygon {
fill: gainsboro;
stroke: red;
stroke-width: 0.1px;
}
</style>

<polygon id="1" points="+0329.023,-0062.343,+0318.449,-0065.375,+0316.198,-0057.525,+0326.772,-0054.493" />
<polygon id="2" points="+0331.228,-0070.033,+0320.654,-0073.065,+0318.587,-0065.856,+0329.161,-0062.823" />
<polygon id="3" points="+0333.433,-0077.723,+0322.859,-0080.755,+0320.792,-0073.546,+0331.366,-0070.514" />
<polygon id="4" points="+0357.109,-0057.800,+0356.388,-0058.007,+0351.742,-0059.339,+0349.258,-0060.051,+0346.077,-0048.957,+0353.927,-0046.706" />
<polygon id="712" points="+0076.833,-0069.667,+0076.833,-0073.208,+0076.833,-0073.242,+0076.833,-0074.208,+0076.833,-0075.708,+0076.833,-0076.292,+0063.292,-0076.292,+0063.292,-0076.042,+0062.792,-0076.042,+0062.792,-0076.292,+0060.542,-0076.292,+0060.542,-0069.667,+0062.792,-0069.667,+0062.792,-0069.917,+0063.292,-0069.917,+0063.292,-0069.667,+0064.438,-0069.667,+0064.438,-0069.010,+0067.271,-0069.010,+0067.271,-0069.667" />
<polygon id="713" points="+0067.271,-0069.010,+0064.438,-0069.010,+0063.292,-0069.010,+0062.792,-0069.010,+0060.542,-0069.010,+0060.542,-0061.781,+0067.271,-0061.781,+0067.271,-0067.417" />
<polygon id="720" points="+0128.167,-0058.875,+0128.167,-0064.292,+0119.865,-0064.292,+0116.604,-0064.292,+0116.604,-0064.375,+0116.198,-0064.375,+0116.198,-0064.292,+0108.708,-0064.292,+0105.448,-0064.292,+0105.448,-0064.375,+0105.042,-0064.375,+0105.042,-0064.292,+0097.552,-0064.292,+0094.292,-0064.292,+0094.292,-0054.875,+0100.542,-0054.875,+0100.542,-0055.510,+0101.042,-0055.510,+0101.208,-0055.510,+0104.458,-0055.510,+0115.125,-0055.510,+0116.542,-0055.510,+0116.542,-0055.104,+0116.542,-0054.652,+0116.542,-0042.677,+0116.542,-0041.771,+0115.125,-0041.771,+0115.125,-0020.042,+0115.125,-0019.542,+0115.125,-0008.052,+0118.125,-0008.052,+0121.375,-0008.052,+0126.667,-0008.052,+0126.667,-0011.052,+0128.167,-0011.052,+0128.167,-0008.052,+0128.167,-0007.448,+0129.188,-0007.448,+0129.188,-0008.208,+0129.188,-0011.458,+0129.188,-0017.354,+0128.167,-0017.354,+0126.667,-0017.354,+0126.667,-0022.771,+0128.167,-0022.771,+0128.167,-0029.365,+0126.667,-0029.365,+0126.667,-0034.781,+0128.167,-0034.781,+0128.167,-0037.188,+0128.167,-0041.375,+0127.715,-0041.375,+0126.667,-0041.375,+0126.667,-0046.792,+0128.167,-0046.792,+0128.167,-0053.458,+0126.667,-0053.458,+0126.667,-0054.958,+0126.667,-0058.875" />
<polygon id="721" points="+0104.458,-0055.104,+0101.042,-0055.104,+0101.042,-0054.063,+0101.042,-0053.563,+0101.042,-0045.531,+0101.042,-0042.677,+0116.542,-0042.677,+0116.542,-0055.104" />
<polygon id="734" points="+0097.552,-0064.552,+0097.552,-0064.292,+0105.042,-0064.292,+0105.042,-0076.292,+0091.042,-0076.292,+0091.042,-0069.958,+0094.292,-0069.958,+0094.292,-0064.552" />
<polygon id="735" points="+0108.708,-0064.552,+0108.708,-0064.292,+0116.198,-0064.292,+0116.198,-0076.292,+0105.448,-0076.292,+0105.448,-0064.552" />
<polygon id="736" points="+0128.167,-0064.292,+0128.167,-0074.979,+0125.156,-0074.979,+0125.156,-0076.167,+0125.156,-0076.292,+0116.604,-0076.292,+0116.604,-0068.033,+0117.135,-0068.033,+0117.135,-0064.552,+0119.865,-0064.552,+0119.865,-0064.292" />
<polygon id="770" points="+0303.857,-0077.093,+0303.827,-0069.318,+0307.232,-0069.449,+0308.114,-0069.482,+0310.429,-0077.556,+0307.437,-0078.414,+0307.002,-0078.539,+0306.618,-0077.199" />
<polygon id="771" points="+0315.241,-0058.722,+0318.057,-0068.542,+0309.021,-0071.133,+0308.431,-0069.078,+0307.248,-0069.032,+0303.825,-0068.901,+0303.799,-0062.003" />
<polygon id="772" points="+0308.397,-0083.404,+0308.029,-0082.122,+0307.928,-0081.767,+0307.373,-0079.833,+0307.002,-0078.539,+0309.995,-0077.681,+0310.286,-0077.597,+0310.361,-0077.858,+0310.904,-0077.702,+0309.480,-0072.735,+0318.516,-0070.144,+0321.260,-0079.715" />
<polygon id="773" points="+0305.006,-0080.041,+0307.248,-0079.398,+0308.052,-0082.202,+0305.809,-0082.845" />
<polygon id="775" points="+0299.943,-0124.766,+0299.940,-0124.756,+0296.659,-0125.697,+0293.638,-0115.163,+0297.163,-0114.152,+0297.160,-0114.142,+0301.936,-0112.773,+0301.986,-0112.759,+0302.121,-0113.229,+0302.592,-0113.094,+0302.457,-0112.624,+0302.322,-0112.153,+0301.743,-0110.133,+0301.828,-0110.088,+0314.550,-0103.324,+0323.058,-0132.996,+0308.589,-0134.007,+0305.618,-0123.648,+0305.601,-0123.588,+0305.483,-0123.177,+0305.348,-0122.707,+0304.878,-0122.842,+0305.013,-0123.312,+0304.963,-0123.327" />
<polygon id="780" points="+0297.055,-0113.663,+0293.851,-0114.582,+0293.726,-0114.148,+0292.794,-0110.896,+0299.162,-0107.510,+0299.324,-0107.814,+0300.846,-0107.005,+0300.611,-0106.184,+0313.304,-0099.435,+0312.045,-0095.044,+0318.719,-0091.496,+0337.691,-0086.766,+0337.449,-0085.795,+0340.197,-0085.110,+0340.439,-0086.081,+0341.639,-0085.781,+0341.754,-0086.182,+0342.603,-0085.970,+0353.668,-0124.557,+0351.892,-0125.168,+0352.007,-0125.569,+0350.863,-0125.963,+0340.380,-0089.402,+0333.260,-0091.177,+0343.920,-0128.354,+0343.797,-0128.396,+0344.124,-0129.341,+0341.444,-0130.266,+0341.119,-0129.318,+0340.994,-0129.336,+0330.266,-0091.923,+0319.877,-0094.514,+0315.846,-0096.657,+0326.202,-0132.776,+0323.058,-0132.996,+0314.550,-0103.324,+0301.828,-0110.088,+0301.665,-0109.860,+0301.234,-0109.984,+0300.644,-0110.297,+0300.806,-0110.601,+0296.789,-0112.736" />
<polygon id="781" points="+0340.950,-0069.775,+0341.892,-0073.060,+0341.091,-0073.289,+0339.569,-0073.726,+0340.268,-0076.164,+0338.986,-0076.532,+0337.865,-0076.853,+0338.034,-0077.444,+0334.830,-0078.363,+0334.661,-0077.772,+0334.500,-0077.818,+0332.214,-0069.845,+0335.579,-0068.880,+0340.305,-0067.525" />
<polygon id="782" points="+0367.020,-0062.284,+0368.008,-0065.728,+0361.639,-0067.554,+0361.364,-0066.593,+0359.441,-0067.144,+0359.717,-0068.106,+0342.324,-0073.093,+0341.341,-0069.663,+0340.512,-0066.775,+0343.266,-0065.985,+0343.246,-0065.915,+0346.370,-0065.019,+0346.390,-0065.089,+0349.414,-0064.222,+0349.595,-0064.853,+0352.335,-0064.067,+0351.157,-0059.962,+0351.862,-0059.760,+0351.742,-0059.339,+0356.388,-0058.007,+0356.508,-0058.428,+0357.069,-0058.267,+0358.289,-0062.520,+0359.691,-0062.121,+0362.815,-0061.225,+0366.420,-0060.191" />
<polygon id="783" points="+0346.235,-0064.549,+0346.258,-0064.629,+0343.134,-0065.524,+0343.111,-0065.444,+0340.057,-0066.320,+0335.914,-0051.871,+0345.116,-0049.232,+0349.259,-0063.681" />
<polygon id="786" points="+0362.703,-0060.834,+0359.419,-0061.776,+0357.742,-0055.928,+0364.631,-0053.953,+0366.308,-0059.801" />
<polygon id="789" points="+0368.398,-0065.616,+0367.411,-0062.172,+0365.757,-0056.404,+0372.252,-0054.542,+0371.241,-0051.017,+0357.346,-0055.002,+0354.889,-0046.430,+0374.174,-0040.900,+0374.639,-0042.522,+0380.920,-0040.721,+0385.570,-0039.994,+0387.695,-0053.606,+0386.556,-0053.784,+0386.993,-0056.584,+0383.363,-0057.151,+0384.469,-0061.008" />
<polygon id="A" points="+0332.375,-0069.799,+0332.234,-0069.309,+0332.074,-0069.355,+0327.733,-0054.217,+0335.423,-0052.012,+0339.764,-0067.149,+0335.438,-0068.390,+0335.579,-0068.880,+0332.649,-0069.721" />
<polygon id="C" points="+0357.896,-0142.075,+0342.775,-0148.167,+0339.926,-0141.095,+0355.047,-0135.003" />
<polygon id="DW1" points="+0333.489,-0143.014,+0337.354,-0141.457,+0338.911,-0145.322,+0335.046,-0146.879" />
<polygon id="E-1" points="+0067.969,-0052.927,+0070.167,-0052.927,+0074.167,-0052.927,+0075.771,-0052.927,+0075.771,-0053.521,+0076.365,-0053.521,+0076.365,-0067.417,+0067.969,-0067.417,+0067.969,-0061.781,+0067.969,-0060.052" />
<polygon id="E-2" points="+0148.760,-0022.000,+0148.760,-0010.552,+0148.760,-0009.719,+0149.365,-0009.719,+0149.365,-0009.146,+0158.625,-0009.146,+0158.833,-0009.146,+0158.833,-0023.833,+0148.760,-0023.833" />
<polygon id="E-A" points="+0090.375,-0052.167,+0090.375,-0069.667,+0082.844,-0069.667,+0082.844,-0052.167" />
<polygon id="E-D" points="+0142.625,-0003.715,+0142.625,-0000.594,+0158.625,-0000.594,+0158.625,-0008.427,+0149.365,-0008.427,+0148.125,-0008.427,+0142.625,-0008.427,+0142.625,-0004.200,+0142.625,-0004.167" />
<polygon id="E701" points="+0115.125,-0001.750,+0115.125,-0007.083,+0114.625,-0007.083,+0114.625,-0041.677,+0101.042,-0041.677,+0100.542,-0041.677,+0100.542,-0042.312,+0094.292,-0042.312,+0094.292,-0041.677,+0094.292,-0001.750" />
<polygon id="E710" points="+0076.833,-0070.119,+0076.833,-0069.875,+0076.881,-0069.875,+0077.333,-0069.875,+0077.333,-0069.667,+0077.333,-0069.423,+0077.333,-0052.167,+0075.771,-0052.167,+0074.167,-0052.167,+0074.167,-0052.927,+0070.167,-0052.927,+0070.167,-0052.167,+0067.271,-0052.167,+0067.271,-0052.823,+0064.438,-0052.823,+0064.438,-0052.167,+0063.208,-0052.167,+0063.208,-0045.542,+0093.656,-0045.542,+0093.656,-0051.875,+0090.375,-0051.875,+0090.375,-0052.167,+0082.844,-0052.167,+0082.844,-0069.667,+0090.375,-0069.667,+0090.375,-0069.958,+0090.375,-0076.292,+0077.333,-0076.292,+0077.333,-0075.708,+0076.833,-0075.708,+0076.833,-0074.208,+0077.333,-0074.208,+0077.333,-0073.208,+0076.833,-0073.208" />
<polygon id="E710.1" points="+0060.542,-0045.542,+0063.208,-0045.542,+0063.208,-0052.167,+0060.542,-0052.167" />
<polygon id="E715" points="+0115.125,-0007.448,+0115.125,-0006.631,+0115.125,-0001.750,+0115.125,-0000.833,+0142.625,-0000.833,+0142.625,-0001.046,+0142.625,-0004.167,+0141.865,-0004.167,+0141.865,-0009.146,+0138.531,-0009.146,+0138.531,-0007.448,+0135.302,-0007.448,+0134.667,-0007.448,+0129.823,-0007.448,+0129.640,-0007.448,+0128.736,-0007.448,+0128.167,-0007.448,+0121.375,-0007.448,+0121.375,-0007.646,+0118.125,-0007.646,+0118.125,-0007.448" />
<polygon id="E725" points="+0138.531,-0019.521,+0138.531,-0016.188,+0138.531,-0013.260,+0138.531,-0012.808,+0138.531,-0012.625,+0138.531,-0009.146,+0141.865,-0009.146,+0148.125,-0009.146,+0148.125,-0009.719,+0148.125,-0010.552,+0148.760,-0010.552,+0148.760,-0022.000,+0148.125,-0022.000,+0148.125,-0023.833,+0138.531,-0023.833" />
<polygon id="E726" points="+0138.115,-0016.188,+0138.531,-0016.188,+0138.531,-0019.521,+0138.115,-0019.521,+0138.115,-0023.833,+0135.500,-0023.833,+0135.500,-0019.625,+0130.167,-0019.625,+0130.167,-0012.094,+0134.667,-0012.094,+0134.667,-0013.260,+0137.896,-0013.260,+0138.079,-0013.260,+0138.115,-0013.260" />
<polygon id="E730" points="+0100.542,-0054.875,+0094.292,-0054.875,+0094.292,-0051.875,+0093.656,-0051.875,+0093.656,-0045.542,+0094.292,-0045.542,+0094.292,-0042.312,+0100.542,-0042.312" />
<polygon id="E836" points="+0064.438,-0052.823,+0067.271,-0052.823,+0067.271,-0060.052,+0060.542,-0060.052,+0060.542,-0052.823" />
<polygon id="H" points="+0303.287,-0061.514,+0303.346,-0076.931,+0303.347,-0077.223,+0303.376,-0084.693,+0303.379,-0085.627,+0303.393,-0089.108,+0274.556,-0086.444,+0274.544,-0086.401,+0269.581,-0069.094,+0281.705,-0066.368,+0282.144,-0066.269,+0290.150,-0064.468,+0296.239,-0063.099,+0298.434,-0062.605" />

</svg>